<?xml version="1.0" encoding="UTF-8" standalone="no"?>
<!DOCTYPE svg PUBLIC "-//W3C//DTD SVG 1.1//EN" "http://www.w3.org/Graphics/SVG/1.1/DTD/svg11.dtd">
<svg width="100%" height="100%" viewBox="0 0 1544 461" version="1.1" xmlns="http://www.w3.org/2000/svg" xmlns:xlink="http://www.w3.org/1999/xlink" xml:space="preserve" xmlns:serif="http://www.serif.com/" style="fill-rule:evenodd;clip-rule:evenodd;stroke-linejoin:round;stroke-miterlimit:2;">
    <g transform="matrix(1,0,0,1,-108.416667,-133.5625)">
        <g id="Слой-1" serif:id="Слой 1" transform="matrix(4.166667,0,0,4.166667,0,0)">
            <g>
                <g transform="matrix(97.759994,0,0,-97.759994,26.019501,87.667951)">
                    <path d="M0.454,0.556L0.048,0.322C0.019,0.304 0,0.273 0,0.239L0,-0.229C0,-0.264 0.019,-0.296 0.048,-0.313L0.454,-0.547C0.483,-0.565 0.52,-0.565 0.55,-0.547L0.956,-0.313C0.985,-0.296 1.003,-0.264 1.003,-0.229L1.003,0.239C1.003,0.273 0.985,0.305 0.956,0.322L0.55,0.556C0.535,0.565 0.518,0.569 0.502,0.569C0.485,0.569 0.469,0.565 0.454,0.556Z" style="fill:url(#_Linear1);fill-rule:nonzero;"/>
                </g>
                <g transform="matrix(51.220001,0,0,-51.220001,56.43,112.658852)">
                    <path d="M0.004,-0.403L0.272,-0.558C0.329,-0.591 0.399,-0.591 0.455,-0.558L1.095,-0.189C1.451,0.357 0.861,0.552 0.861,0.552L0.467,0.591L0.004,-0.403Z" style="fill:url(#_Linear2);fill-rule:nonzero;"/>
                </g>
                <g transform="matrix(51.759998,0,0,-51.759998,41.560001,62.321203)">
                    <path d="M0.557,0.56L-0.076,0.195C-0.429,-0.344 0.155,-0.537 0.155,-0.537L0.545,-0.577L1.003,0.406L0.738,0.56C0.71,0.577 0.679,0.585 0.647,0.585C0.616,0.585 0.585,0.577 0.557,0.56Z" style="fill:url(#_Linear3);fill-rule:nonzero;"/>
                </g>
                <g transform="matrix(1,0,0,1,49.521,84.7227)">
                    <path d="M0,5.502L16.833,10.811C18.063,11.199 18.775,12.559 18.387,13.789L6.992,48.75L49.338,1.595L50.369,1.941C50.887,2.136 62.994,6.473 65.972,16.314C67.849,22.465 65.907,29.716 60.21,37.809L58.526,40.204L61.764,38.326L62.994,37.614C78.912,13.255 57.753,2.577 52.215,0.288C52.116,0.247 52.022,0.209 51.934,0.173C51.845,0.137 51.762,0.105 51.684,0.074L51.468,-0.009L51.287,-0.077L51.143,-0.129L51.038,-0.166L50.973,-0.188L50.951,-0.195L48.906,-0.755L34.054,-5.439C32.824,-5.827 32.112,-7.187 32.5,-8.417L44.024,-43.248L1.659,3.665L0.647,3.366C-0.194,3.042 -11.977,-1.296 -14.891,-11.007C-16.768,-17.158 -14.826,-24.409 -9.129,-32.501L-7.51,-35.041L-11.913,-32.501C-30.17,-4.597 0,5.502 0,5.502" style="fill:white;fill-rule:nonzero;"/>
                </g>
                <g transform="matrix(1,0,0,1,153.379,133.9385)">
                    <path d="M0,-31.715C-1.769,-31.715 -3.398,-31.067 -4.607,-29.21L-3.433,-28.404C-2.592,-29.666 -1.436,-30.296 0,-30.296C2.189,-30.296 3.784,-28.72 4.099,-26.6L-0.35,-26.6L-0.35,-25.216L4.117,-25.216C3.854,-23.062 2.225,-21.398 0,-21.398C-1.489,-21.398 -2.627,-22.064 -3.433,-23.325L-4.607,-22.537C-3.451,-20.68 -1.804,-19.979 0,-19.979C3.486,-19.979 5.675,-22.519 5.675,-25.812C5.675,-29.088 3.311,-31.715 0,-31.715M16.781,-24.025C16.781,-26.11 15.432,-27.792 12.682,-28.037L12.682,-31.207L11.21,-31.207L11.21,-28.037C8.495,-27.774 7.112,-26.057 7.112,-24.025C7.112,-21.941 8.391,-20.259 11.21,-20.014L11.21,-16.844L12.682,-16.844L12.682,-20.014C15.397,-20.277 16.781,-21.994 16.781,-24.025M12.682,-21.293L12.682,-26.776C14.556,-26.53 15.344,-25.391 15.362,-24.025C15.379,-22.677 14.556,-21.52 12.682,-21.293M8.531,-24.025C8.531,-25.391 9.354,-26.53 11.21,-26.776L11.21,-21.293C9.354,-21.52 8.531,-22.677 8.531,-24.025M27.745,-24.025C27.745,-26.11 26.397,-27.792 23.646,-28.037L23.646,-31.207L22.175,-31.207L22.175,-28.037C19.46,-27.774 18.077,-26.057 18.077,-24.025C18.077,-21.941 19.355,-20.259 22.175,-20.014L22.175,-16.844L23.646,-16.844L23.646,-20.014C26.362,-20.277 27.745,-21.994 27.745,-24.025M23.646,-21.293L23.646,-26.776C25.521,-26.53 26.309,-25.391 26.327,-24.025C26.344,-22.677 25.521,-21.52 23.646,-21.293M19.496,-24.025C19.496,-25.391 20.318,-26.53 22.175,-26.776L22.175,-21.293C20.318,-21.52 19.496,-22.677 19.496,-24.025M36.451,-24.113C36.451,-26.477 35.12,-28.072 32.895,-28.072C30.618,-28.072 29.059,-26.25 29.059,-24.008C29.059,-21.416 30.705,-19.979 32.895,-19.979C34.436,-19.979 35.627,-20.645 36.223,-21.959L35.014,-22.501C34.594,-21.643 33.964,-21.258 32.913,-21.258C31.546,-21.258 30.67,-22.239 30.548,-23.675L36.433,-23.675C36.451,-23.85 36.451,-23.955 36.451,-24.113M32.877,-26.811C34.034,-26.811 34.734,-26.022 34.91,-24.849L30.618,-24.849C30.881,-26.11 31.774,-26.811 32.877,-26.811M44.999,-20.172L41.443,-24.253L44.666,-27.809L42.897,-27.809L39.814,-24.393L39.814,-27.809L38.307,-27.809L38.307,-20.172L39.814,-20.172L39.814,-23.92L43.125,-20.172L44.999,-20.172ZM51.935,-27.809L45.332,-27.809L45.332,-26.477L47.889,-26.477L47.889,-20.172L49.378,-20.172L49.378,-26.477L51.935,-26.477L51.935,-27.809ZM59.782,-27.897L54.965,-23.009L54.965,-27.809L53.476,-27.809L53.476,-20.119L54.072,-20.119L58.889,-25.024L58.889,-20.172L60.36,-20.172L60.36,-27.897L59.782,-27.897ZM67.945,-24.288C68.558,-24.604 68.908,-25.146 68.908,-25.882C68.891,-27.073 68.155,-27.809 66.508,-27.809L62.83,-27.809L62.83,-20.172L66.683,-20.172C68.54,-20.172 69.434,-21.013 69.434,-22.344C69.434,-23.325 68.961,-24.008 67.945,-24.288M67.49,-25.654C67.49,-25.041 67.087,-24.639 66.316,-24.639L64.266,-24.639L64.266,-26.653L66.316,-26.653C67.122,-26.653 67.49,-26.25 67.49,-25.654M66.596,-21.328L64.266,-21.328L64.266,-23.483L66.666,-23.483C67.56,-23.483 67.98,-23.062 67.98,-22.397C67.98,-21.678 67.56,-21.328 66.596,-21.328M76.615,-27.809L76.615,-24.726L72.727,-24.726L72.727,-27.809L71.22,-27.809L71.22,-20.172L72.727,-20.172L72.727,-23.377L76.615,-23.377L76.615,-20.172L78.104,-20.172L78.104,-27.809L76.615,-27.809ZM84.059,-24.709L82.08,-24.709L82.08,-27.844L80.574,-27.844L80.574,-20.172L84.059,-20.172C86.126,-20.172 87.02,-21.03 87.02,-22.449C87.02,-23.868 86.109,-24.709 84.059,-24.709M88.736,-20.172L90.242,-20.172L90.242,-27.844L88.736,-27.844L88.736,-20.172ZM84.042,-21.346L82.08,-21.346L82.08,-23.535L84.042,-23.535C85.075,-23.535 85.513,-23.15 85.513,-22.449C85.513,-21.731 85.075,-21.346 84.042,-21.346M99.526,-24.113C99.526,-26.477 98.195,-28.072 95.97,-28.072C93.693,-28.072 92.135,-26.25 92.135,-24.008C92.135,-21.416 93.781,-19.979 95.97,-19.979C97.512,-19.979 98.703,-20.645 99.299,-21.959L98.09,-22.501C97.669,-21.643 97.039,-21.258 95.988,-21.258C94.622,-21.258 93.746,-22.239 93.623,-23.675L99.508,-23.675C99.526,-23.85 99.526,-23.955 99.526,-24.113M95.953,-26.811C97.109,-26.811 97.809,-26.022 97.985,-24.849L93.693,-24.849C93.956,-26.11 94.849,-26.811 95.953,-26.811M109.563,-28.072C108.372,-28.072 107.356,-27.616 106.725,-26.653L106.725,-27.809L105.289,-27.809L105.289,-16.809L106.795,-16.809L106.795,-21.223C107.408,-20.347 108.389,-19.979 109.545,-19.979C111.402,-19.979 113.189,-21.433 113.189,-24.025C113.206,-26.636 111.524,-28.072 109.563,-28.072M109.23,-21.293C107.741,-21.31 106.742,-22.449 106.742,-24.025C106.742,-25.62 107.741,-26.758 109.23,-26.758C110.719,-26.758 111.7,-25.62 111.7,-24.025C111.717,-22.449 110.701,-21.31 109.23,-21.293M121.911,-24.113C121.911,-26.477 120.58,-28.072 118.356,-28.072C116.079,-28.072 114.52,-26.25 114.52,-24.008C114.52,-21.416 116.166,-19.979 118.356,-19.979C119.897,-19.979 121.088,-20.645 121.684,-21.959L120.475,-22.501C120.055,-21.643 119.424,-21.258 118.373,-21.258C117.007,-21.258 116.131,-22.239 116.008,-23.675L121.894,-23.675C121.911,-23.85 121.911,-23.955 121.911,-24.113M118.338,-26.811C119.494,-26.811 120.195,-26.022 120.37,-24.849L116.079,-24.849C116.341,-26.11 117.235,-26.811 118.338,-26.811M133.332,-27.809L133.332,-21.503L130.056,-21.503L130.056,-27.809L128.55,-27.809L128.55,-21.503L125.274,-21.503L125.274,-27.809L123.768,-27.809L123.768,-20.172L134.838,-20.172L134.838,-27.809L133.332,-27.809ZM144.122,-24.113C144.122,-26.477 142.791,-28.072 140.566,-28.072C138.289,-28.072 136.73,-26.25 136.73,-24.008C136.73,-21.416 138.377,-19.979 140.566,-19.979C142.107,-19.979 143.298,-20.645 143.894,-21.959L142.686,-22.501C142.265,-21.643 141.634,-21.258 140.584,-21.258C139.217,-21.258 138.341,-22.239 138.219,-23.675L144.104,-23.675C144.122,-23.85 144.122,-23.955 144.122,-24.113M140.548,-26.811C141.704,-26.811 142.405,-26.022 142.58,-24.849L138.289,-24.849C138.552,-26.11 139.445,-26.811 140.548,-26.811M151.373,-27.809L151.373,-24.726L147.484,-24.726L147.484,-27.809L145.978,-27.809L145.978,-20.172L147.484,-20.172L147.484,-23.377L151.373,-23.377L151.373,-20.172L152.862,-20.172L152.862,-27.809L151.373,-27.809ZM161.637,-27.897L156.82,-23.009L156.82,-27.809L155.332,-27.809L155.332,-20.119L155.928,-20.119L160.745,-25.024L160.745,-20.172L162.216,-20.172L162.216,-27.897L161.637,-27.897ZM167.173,-27.809C165.439,-27.809 164.371,-27.003 164.371,-25.497C164.371,-24.428 165.071,-23.605 166.175,-23.29L164.002,-20.172L165.719,-20.172L167.769,-23.132L168.732,-23.132L168.732,-20.172L170.203,-20.172L170.203,-27.809L167.173,-27.809ZM167.243,-24.376C166.315,-24.376 165.842,-24.761 165.842,-25.462C165.842,-26.162 166.315,-26.565 167.208,-26.565L168.732,-26.565L168.732,-24.376L167.243,-24.376ZM179.785,-20.014C181.186,-20.014 182.464,-20.504 183.13,-22.029L181.957,-22.607C181.536,-21.713 180.923,-21.328 179.837,-21.328C178.576,-21.328 177.455,-22.309 177.455,-24.06C177.455,-25.724 178.524,-26.758 179.837,-26.758C180.801,-26.758 181.449,-26.32 181.887,-25.462L183.095,-26.075C182.394,-27.564 181.291,-28.072 179.855,-28.072C177.7,-28.072 175.984,-26.425 175.984,-24.06C175.984,-21.486 177.613,-20.014 179.785,-20.014M191.1,-27.897L186.283,-23.009L186.283,-27.809L184.794,-27.809L184.794,-20.119L185.39,-20.119L190.207,-25.024L190.207,-20.172L191.678,-20.172L191.678,-27.897L191.1,-27.897ZM197.388,-20.014C198.789,-20.014 200.068,-20.504 200.734,-22.029L199.561,-22.607C199.139,-21.713 198.527,-21.328 197.441,-21.328C196.18,-21.328 195.059,-22.309 195.059,-24.06C195.059,-25.724 196.127,-26.758 197.441,-26.758C198.404,-26.758 199.052,-26.32 199.49,-25.462L200.699,-26.075C199.998,-27.564 198.895,-28.072 197.458,-28.072C195.304,-28.072 193.588,-26.425 193.588,-24.06C193.588,-21.486 195.216,-20.014 197.388,-20.014M208.091,-27.809L201.487,-27.809L201.487,-26.477L204.044,-26.477L204.044,-20.172L205.533,-20.172L205.533,-26.477L208.091,-26.477L208.091,-27.809ZM216.218,-24.113C216.218,-26.477 214.887,-28.072 212.662,-28.072C210.385,-28.072 208.826,-26.25 208.826,-24.008C208.826,-21.416 210.473,-19.979 212.662,-19.979C214.203,-19.979 215.395,-20.645 215.99,-21.959L214.782,-22.501C214.361,-21.643 213.731,-21.258 212.68,-21.258C211.314,-21.258 210.438,-22.239 210.315,-23.675L216.2,-23.675C216.218,-23.85 216.218,-23.955 216.218,-24.113M212.645,-26.811C213.801,-26.811 214.501,-26.022 214.677,-24.849L210.385,-24.849C210.648,-26.11 211.541,-26.811 212.645,-26.811M227.324,-20.172L226.518,-27.984L225.905,-27.984L222.541,-22.922L219.056,-27.984L218.442,-27.984L217.707,-20.172L219.178,-20.172L219.546,-24.761L222.488,-20.662L222.506,-20.662L225.379,-24.761L225.835,-20.172L227.324,-20.172ZM-0.175,-11.053C-1.069,-11.053 -2.049,-10.772 -2.768,-10.072C-2.382,-11.806 -1.366,-12.734 1.086,-13.172C2.137,-13.348 2.978,-13.558 3.714,-13.89L3.486,-15.134C2.733,-14.819 1.909,-14.591 0.858,-14.416C-3.188,-13.715 -4.466,-11.298 -4.466,-7.69C-4.466,-4.957 -2.96,-3.171 -0.438,-3.171C1.944,-3.171 3.591,-5.009 3.591,-7.129C3.591,-9.476 2.12,-11.053 -0.175,-11.053M-0.438,-4.484C-1.822,-4.484 -2.925,-5.465 -2.96,-7.094C-2.977,-9.266 -1.489,-9.774 -0.385,-9.774C1.121,-9.774 2.084,-8.723 2.102,-7.129C2.12,-5.728 1.068,-4.484 -0.438,-4.484M12.262,-7.304C12.262,-9.669 10.93,-11.263 8.706,-11.263C6.429,-11.263 4.87,-9.441 4.87,-7.199C4.87,-4.607 6.516,-3.171 8.706,-3.171C10.247,-3.171 11.438,-3.836 12.034,-5.15L10.825,-5.693C10.405,-4.834 9.774,-4.449 8.723,-4.449C7.357,-4.449 6.481,-5.43 6.358,-6.866L12.244,-6.866C12.262,-7.041 12.262,-7.147 12.262,-7.304M8.688,-10.002C9.844,-10.002 10.545,-9.214 10.72,-8.04L6.429,-8.04C6.691,-9.301 7.585,-10.002 8.688,-10.002M17.359,-3.205C18.76,-3.205 20.038,-3.696 20.704,-5.22L19.53,-5.798C19.11,-4.904 18.497,-4.519 17.411,-4.519C16.15,-4.519 15.029,-5.5 15.029,-7.252C15.029,-8.916 16.097,-9.949 17.411,-9.949C18.374,-9.949 19.022,-9.511 19.46,-8.653L20.669,-9.266C19.968,-10.755 18.865,-11.263 17.428,-11.263C15.274,-11.263 13.557,-9.616 13.557,-7.252C13.557,-4.677 15.186,-3.205 17.359,-3.205M29.129,-11L22.368,-11L22.368,-3.363L23.874,-3.363L23.874,-9.669L27.623,-9.669L27.623,-3.363L29.129,-3.363L29.129,-11ZM38.413,-7.304C38.413,-9.669 37.081,-11.263 34.857,-11.263C32.58,-11.263 31.021,-9.441 31.021,-7.199C31.021,-4.607 32.667,-3.171 34.857,-3.171C36.398,-3.171 37.589,-3.836 38.185,-5.15L36.977,-5.693C36.556,-4.834 35.925,-4.449 34.874,-4.449C33.508,-4.449 32.632,-5.43 32.51,-6.866L38.395,-6.866C38.413,-7.041 38.413,-7.147 38.413,-7.304M34.84,-10.002C35.995,-10.002 36.696,-9.214 36.871,-8.04L32.58,-8.04C32.842,-9.301 33.736,-10.002 34.84,-10.002M44.544,-11.263C43.353,-11.263 42.337,-10.807 41.706,-9.844L41.706,-11L40.27,-11L40.27,0L41.776,0L41.776,-4.414C42.389,-3.538 43.37,-3.171 44.526,-3.171C46.382,-3.171 48.169,-4.624 48.169,-7.217C48.187,-9.827 46.505,-11.263 44.544,-11.263M44.21,-4.484C42.722,-4.502 41.723,-5.64 41.723,-7.217C41.723,-8.811 42.722,-9.949 44.21,-9.949C45.7,-9.949 46.681,-8.811 46.681,-7.217C46.698,-5.64 45.682,-4.502 44.21,-4.484M56.892,-7.304C56.892,-9.669 55.561,-11.263 53.336,-11.263C51.059,-11.263 49.501,-9.441 49.501,-7.199C49.501,-4.607 51.147,-3.171 53.336,-3.171C54.878,-3.171 56.069,-3.836 56.665,-5.15L55.456,-5.693C55.035,-4.834 54.405,-4.449 53.354,-4.449C51.988,-4.449 51.112,-5.43 50.989,-6.866L56.875,-6.866C56.892,-7.041 56.892,-7.147 56.892,-7.304M53.319,-10.002C54.475,-10.002 55.175,-9.214 55.351,-8.04L51.059,-8.04C51.322,-9.301 52.215,-10.002 53.319,-10.002M62.462,-11.053C61.568,-11.053 60.588,-10.772 59.87,-10.072C60.255,-11.806 61.271,-12.734 63.723,-13.172C64.774,-13.348 65.615,-13.558 66.351,-13.89L66.123,-15.134C65.37,-14.819 64.546,-14.591 63.495,-14.416C59.449,-13.715 58.171,-11.298 58.171,-7.69C58.171,-4.957 59.677,-3.171 62.199,-3.171C64.581,-3.171 66.228,-5.009 66.228,-7.129C66.228,-9.476 64.757,-11.053 62.462,-11.053M62.199,-4.484C60.816,-4.484 59.712,-5.465 59.677,-7.094C59.66,-9.266 61.148,-9.774 62.252,-9.774C63.758,-9.774 64.721,-8.723 64.739,-7.129C64.757,-5.728 63.706,-4.484 62.199,-4.484M71.518,-3.171C73.9,-3.171 75.546,-5.009 75.546,-7.217C75.546,-9.476 74.005,-11.263 71.518,-11.263C69.118,-11.263 67.49,-9.424 67.49,-7.217C67.49,-4.957 68.996,-3.171 71.518,-3.171M71.518,-4.484C69.977,-4.484 68.961,-5.71 68.961,-7.217C68.961,-8.723 69.977,-9.949 71.518,-9.949C73.024,-9.949 74.04,-8.741 74.058,-7.217C74.075,-5.728 73.024,-4.484 71.518,-4.484M81.117,-12.103C82.448,-12.103 83.674,-12.804 83.674,-14.819L82.483,-14.959C82.483,-13.873 81.852,-13.418 81.134,-13.418C80.381,-13.418 79.751,-13.855 79.751,-14.959L78.489,-14.819C78.489,-12.804 79.715,-12.103 81.117,-12.103M83.709,-11.088L78.892,-6.201L78.892,-11L77.403,-11L77.403,-3.311L77.999,-3.311L82.816,-8.215L82.816,-3.363L84.287,-3.363L84.287,-11.088L83.709,-11.088ZM92.152,-11L92.152,-7.918L88.263,-7.918L88.263,-11L86.757,-11L86.757,-3.363L88.263,-3.363L88.263,-6.569L92.152,-6.569L92.152,-3.363L93.641,-3.363L93.641,-11L92.152,-11ZM99.561,-3.171C101.944,-3.171 103.59,-5.009 103.59,-7.217C103.59,-9.476 102.049,-11.263 99.561,-11.263C97.161,-11.263 95.533,-9.424 95.533,-7.217C95.533,-4.957 97.039,-3.171 99.561,-3.171M99.561,-4.484C98.02,-4.484 97.004,-5.71 97.004,-7.217C97.004,-8.723 98.02,-9.949 99.561,-9.949C101.067,-9.949 102.084,-8.741 102.101,-7.217C102.119,-5.728 101.067,-4.484 99.561,-4.484M110.351,-11L105.447,-11L105.447,-3.363L106.953,-3.363L106.953,-9.721L110.351,-9.721L110.351,-11ZM115.186,-3.171C117.568,-3.171 119.214,-5.009 119.214,-7.217C119.214,-9.476 117.673,-11.263 115.186,-11.263C112.786,-11.263 111.157,-9.424 111.157,-7.217C111.157,-4.957 112.664,-3.171 115.186,-3.171M115.186,-4.484C113.644,-4.484 112.628,-5.71 112.628,-7.217C112.628,-8.723 113.644,-9.949 115.186,-9.949C116.692,-9.949 117.708,-8.741 117.725,-7.217C117.743,-5.728 116.692,-4.484 115.186,-4.484M127.464,-11.263C126.028,-11.263 124.924,-10.755 124.224,-9.266L125.432,-8.653C125.853,-9.511 126.501,-9.949 127.482,-9.949C128.603,-9.949 129.566,-9.178 129.794,-7.882L127.306,-7.882L127.306,-6.621L129.794,-6.621C129.566,-5.273 128.568,-4.519 127.482,-4.519C126.396,-4.519 125.783,-4.904 125.362,-5.798L124.189,-5.22C124.854,-3.696 126.133,-3.205 127.534,-3.205C129.706,-3.205 131.335,-4.677 131.335,-7.252C131.335,-9.616 129.619,-11.263 127.464,-11.263M134.19,-11L133.945,-7.374C133.823,-5.605 133.279,-4.519 132.421,-4.519L132.421,-3.241C134.243,-3.241 135.224,-4.484 135.434,-7.392L135.609,-9.721L138.324,-9.721L138.324,-3.363L139.831,-3.363L139.831,-11L134.19,-11ZM149.202,-7.304C149.202,-9.669 147.871,-11.263 145.646,-11.263C143.369,-11.263 141.81,-9.441 141.81,-7.199C141.81,-4.607 143.457,-3.171 145.646,-3.171C147.187,-3.171 148.378,-3.836 148.974,-5.15L147.766,-5.693C147.345,-4.834 146.714,-4.449 145.664,-4.449C144.297,-4.449 143.421,-5.43 143.299,-6.866L149.184,-6.866C149.202,-7.041 149.202,-7.147 149.202,-7.304M145.629,-10.002C146.785,-10.002 147.485,-9.214 147.661,-8.04L143.369,-8.04C143.632,-9.301 144.525,-10.002 145.629,-10.002M157.749,-3.363L154.194,-7.444L157.416,-11L155.648,-11L152.564,-7.585L152.564,-11L151.058,-11L151.058,-3.363L152.564,-3.363L152.564,-7.112L155.875,-3.363L157.749,-3.363ZM164.686,-11L158.082,-11L158.082,-9.669L160.639,-9.669L160.639,-3.363L162.129,-3.363L162.129,-9.669L164.686,-9.669L164.686,-11ZM170.502,-11.263C169.311,-11.263 168.295,-10.807 167.664,-9.844L167.664,-11L166.228,-11L166.228,0L167.734,0L167.734,-4.414C168.347,-3.538 169.328,-3.171 170.484,-3.171C172.341,-3.171 174.128,-4.624 174.128,-7.217C174.145,-9.827 172.463,-11.263 170.502,-11.263M170.169,-4.484C168.68,-4.502 167.681,-5.64 167.681,-7.217C167.681,-8.811 168.68,-9.949 170.169,-9.949C171.658,-9.949 172.639,-8.811 172.639,-7.217C172.656,-5.64 171.64,-4.502 170.169,-4.484M179.47,-3.171C181.852,-3.171 183.498,-5.009 183.498,-7.217C183.498,-9.476 181.957,-11.263 179.47,-11.263C177.07,-11.263 175.441,-9.424 175.441,-7.217C175.441,-4.957 176.947,-3.171 179.47,-3.171M179.47,-4.484C177.928,-4.484 176.912,-5.71 176.912,-7.217C176.912,-8.723 177.928,-9.949 179.47,-9.949C180.976,-9.949 181.992,-8.741 182.009,-7.217C182.027,-5.728 180.976,-4.484 179.47,-4.484M192.116,-11L185.355,-11L185.355,-3.363L186.861,-3.363L186.861,-9.669L190.61,-9.669L190.61,-3.363L192.116,-3.363L192.116,-11ZM200.874,-11.088L196.057,-6.201L196.057,-11L194.568,-11L194.568,-3.311L195.164,-3.311L199.981,-8.215L199.981,-3.363L201.452,-3.363L201.452,-11.088L200.874,-11.088ZM209.615,-11L203.011,-11L203.011,-9.669L205.568,-9.669L205.568,-3.363L207.057,-3.363L207.057,-9.669L209.615,-9.669L209.615,-11ZM217.059,-4.659C216.954,-4.554 216.866,-4.502 216.709,-4.502C216.481,-4.502 216.341,-4.642 216.341,-4.904L216.341,-8.32C216.341,-10.369 215.185,-11.263 213.521,-11.263C211.874,-11.263 210.928,-10.475 210.578,-9.196L211.857,-8.828C212.119,-9.599 212.575,-9.967 213.398,-9.967C214.327,-9.967 214.869,-9.441 214.869,-8.32L214.869,-7.602L213.153,-7.602C211.331,-7.602 210.298,-6.656 210.298,-5.308C210.298,-3.977 211.243,-3.188 212.698,-3.188C213.783,-3.188 214.537,-3.591 214.992,-4.257C215.115,-3.538 215.64,-3.241 216.341,-3.241C216.901,-3.241 217.34,-3.433 217.62,-3.748L217.059,-4.659ZM212.996,-4.379C212.242,-4.379 211.787,-4.782 211.787,-5.413C211.787,-6.078 212.294,-6.499 213.1,-6.499L214.869,-6.499C214.869,-5.15 214.116,-4.379 212.996,-4.379M224.311,-11L224.311,-7.918L220.422,-7.918L220.422,-11L218.916,-11L218.916,-3.363L220.422,-3.363L220.422,-6.569L224.311,-6.569L224.311,-3.363L225.8,-3.363L225.8,-11L224.311,-11ZM234.575,-11.088L229.759,-6.201L229.759,-11L228.27,-11L228.27,-3.311L228.866,-3.311L233.682,-8.215L233.682,-3.363L235.154,-3.363L235.154,-11.088L234.575,-11.088ZM240.111,-11C238.377,-11 237.308,-10.195 237.308,-8.688C237.308,-7.62 238.009,-6.796 239.112,-6.481L236.94,-3.363L238.657,-3.363L240.707,-6.324L241.67,-6.324L241.67,-3.363L243.141,-3.363L243.141,-11L240.111,-11ZM240.181,-7.567C239.252,-7.567 238.78,-7.952 238.78,-8.653C238.78,-9.354 239.252,-9.756 240.146,-9.756L241.67,-9.756L241.67,-7.567L240.181,-7.567Z" style="fill:rgb(26,109,181);fill-rule:nonzero;"/>
                </g>
                <g transform="matrix(1,0,0,1,148.3882,41.0627)">
                    <path d="M0,44.759L0,0L26.75,0L26.75,8.276L9.733,8.276L9.733,18.208L24.035,18.208L23.638,26.154L9.733,26.154L9.733,36.483L27.346,36.483L27.346,44.759L0,44.759Z" style="fill:rgb(26,109,181);fill-rule:nonzero;"/>
                </g>
                <g transform="matrix(1,0,0,1,226.7822,50.2651)">
                    <path d="M0,26.353L1.854,34.365C-2.383,35.732 -6.687,36.417 -11.057,36.417C-16.531,36.417 -20.945,34.84 -24.299,31.683C-27.655,28.528 -29.332,23.97 -29.332,18.01L-29.332,8.343C-29.332,2.384 -27.655,-2.173 -24.299,-5.329C-20.945,-8.485 -16.531,-10.064 -11.057,-10.064C-6.687,-10.064 -2.383,-9.378 1.854,-8.011L0,-0.065C-3.707,-1.213 -7.372,-1.787 -10.991,-1.787C-16.729,-1.787 -19.599,1.854 -19.599,9.138L-19.599,17.15C-19.599,21.035 -18.86,23.837 -17.38,25.559C-15.902,27.28 -13.772,28.141 -10.991,28.141C-7.107,28.141 -3.442,27.545 0,26.353" style="fill:rgb(26,109,181);fill-rule:nonzero;"/>
                </g>
                <g transform="matrix(1,0,0,1,267.7002,48.4772)">
                    <path d="M0,29.929C5.341,29.929 8.012,26.287 8.012,19.004L8.012,10.926C8.012,3.642 5.341,0.001 0,0.001C-5.297,0.001 -7.945,3.642 -7.945,10.926L-7.945,19.004C-7.945,26.287 -5.297,29.929 0,29.929M-17.679,19.732L-17.679,10.264C-17.679,4.349 -16.013,-0.219 -12.68,-3.442C-9.347,-6.664 -5.121,-8.276 0,-8.276C5.165,-8.276 9.413,-6.664 12.746,-3.442C16.078,-0.219 17.745,4.349 17.745,10.264L17.745,19.732C17.745,25.691 16.078,30.26 12.746,33.438C9.413,36.616 5.165,38.205 0,38.205C-5.121,38.205 -9.347,36.606 -12.68,33.405C-16.013,30.205 -17.679,25.648 -17.679,19.732" style="fill:rgb(26,109,181);fill-rule:nonzero;"/>
                </g>
                <g transform="matrix(1,0,0,1,304.3154,41.0628)">
                    <path d="M0,45.421L-0.464,37.343C1.258,37.035 2.625,36.582 3.642,35.986C4.656,35.39 5.638,34.363 6.588,32.907C7.536,31.45 8.243,29.376 8.706,26.683C9.17,23.991 9.534,20.492 9.799,16.189C10.063,11.884 10.196,6.488 10.196,0L39.396,0L39.396,44.759L29.663,44.759L29.663,8.077L19.466,8.077C19.466,12.801 19.311,16.994 19.003,20.658C18.693,24.322 18.296,27.444 17.811,30.026C17.324,32.609 16.629,34.805 15.725,36.615C14.819,38.425 13.893,39.882 12.944,40.985C11.994,42.088 10.781,42.961 9.303,43.6C7.823,44.24 6.399,44.682 5.031,44.924C3.663,45.167 1.986,45.332 0,45.421" style="fill:rgb(26,109,181);fill-rule:nonzero;"/>
                </g>
                <g transform="matrix(1,0,0,1,375.7578,41.0627)">
                    <path d="M0,44.759L0,8.276L-10.858,8.276L-10.858,0L20.593,0L20.593,8.276L9.733,8.276L9.733,44.759L0,44.759Z" style="fill:rgb(26,109,181);fill-rule:nonzero;"/>
                </g>
            </g>
        </g>
    </g>
    <defs>
        <linearGradient id="_Linear1" x1="0" y1="0" x2="1" y2="0" gradientUnits="userSpaceOnUse" gradientTransform="matrix(1,0,0,-1,0,0.004305)"><stop offset="0" style="stop-color:rgb(58,119,188);stop-opacity:1"/><stop offset="0.5" style="stop-color:rgb(21,178,222);stop-opacity:1"/><stop offset="1" style="stop-color:rgb(58,119,188);stop-opacity:1"/></linearGradient>
        <linearGradient id="_Linear2" x1="0" y1="0" x2="1" y2="0" gradientUnits="userSpaceOnUse" gradientTransform="matrix(1,0,0,-1,0,0.000014)"><stop offset="0" style="stop-color:rgb(19,192,222);stop-opacity:1"/><stop offset="1" style="stop-color:rgb(38,73,159);stop-opacity:1"/></linearGradient>
        <linearGradient id="_Linear3" x1="0" y1="0" x2="1" y2="0" gradientUnits="userSpaceOnUse" gradientTransform="matrix(1,0,0,-1,0,0.008122)"><stop offset="0" style="stop-color:rgb(38,73,159);stop-opacity:1"/><stop offset="1" style="stop-color:rgb(19,192,222);stop-opacity:1"/></linearGradient>
    </defs>
</svg>
