<svg width="1000" height="1110" viewBox="0 0 1000 1110" fill="none" xmlns="http://www.w3.org/2000/svg">
<path fill-rule="evenodd" clip-rule="evenodd" d="M299.157 91.7996C138.529 187.112 103.438 227.363 83.4809 339.184C70.4895 411.987 112.5 487.521 191.481 533.373L254.034 569.689L459.616 338.181C572.686 210.84 667.355 108.832 670.006 111.485C672.656 114.139 650.418 191.617 620.614 283.674C590.793 375.732 571.977 456.126 578.819 462.343C585.646 468.561 639.785 489.45 699.117 508.765C896.207 572.945 973.262 694.022 909.23 838.919L877.653 910.411L924.856 882.934C950.824 867.815 978.271 839.367 985.853 819.727C1003.73 773.367 1003.79 336.036 985.915 289.475C969.286 246.17 544.73 -1.2143 489.112 0.0044881C469.001 0.436465 383.516 41.752 299.157 91.7996ZM57.9912 235.077L5.62485 270.376L1.43308 548.646C-2.32719 798.761 -0.000137785 829.354 24.5495 851.107C73.3097 894.32 466.011 1110 495.924 1110C511.905 1110 593.537 1071.48 677.341 1024.39C801.107 954.858 836.952 926.379 868.422 872.629C940.344 749.762 906.517 625.8 783.708 562.222C742.067 540.67 739.278 541.966 673.812 613.381C610.982 681.911 454.33 858.235 362.789 963.436C340.643 988.892 322.381 1002.78 322.196 994.292C322.027 985.807 345.328 905.968 373.992 816.873C402.657 727.778 423.569 650.623 420.456 645.424C417.359 640.225 381.682 626.973 341.213 615.988C99.5391 550.359 6.62656 418.235 88.7206 257.015C104.763 225.527 116.183 199.763 114.118 199.763C112.053 199.763 86.7942 215.654 57.9912 235.077Z" fill="#1161A8"/>
</svg>
