<?xml version="1.0" encoding="UTF-8"?>
<svg id="_Слой_1" data-name="Слой_1" xmlns="http://www.w3.org/2000/svg" version="1.1" xmlns:xlink="http://www.w3.org/1999/xlink" viewBox="0 0 514.6 141.4">
  <!-- Generator: Adobe Illustrator 30.2.1, SVG Export Plug-In . SVG Version: 2.1.1 Build 1)  -->
  <defs>
    <style>
      .st0 {
        fill: url(#_Безымянный_градиент_4);
      }

      .st1, .st2 {
        fill: none;
      }

      .st3 {
        clip-path: url(#clippath-1);
      }

      .st4 {
        clip-path: url(#clippath-3);
      }

      .st2 {
        clip-rule: evenodd;
      }

      .st5 {
        fill: url(#_Безымянный_градиент_2);
      }

      .st6 {
        fill: url(#_Безымянный_градиент);
      }

      .st7 {
        clip-path: url(#clippath-2);
      }

      .st8 {
        fill: #fefefe;
      }

      .st9 {
        fill: url(#_Безымянный_градиент_3);
      }

      .st10 {
        clip-path: url(#clippath);
      }
    </style>
    <clipPath id="clippath">
      <path class="st2" d="M56,3.6L5.9,32.5c-3.6,2.1-5.9,6-5.9,10.2v57.8c0,4.2,2.3,8.2,5.9,10.3l50.1,28.9c3.7,2.1,8.2,2.1,11.8,0l50.1-28.9c3.7-2.1,5.9-6,5.9-10.3v-57.8c0-4.2-2.3-8.2-5.9-10.3L67.8,3.6c-1.8-1.1-3.9-1.6-5.9-1.6s-4.1.5-5.9,1.6"/>
    </clipPath>
    <linearGradient id="_Безымянный_градиент" data-name="Безымянный градиент" x1="0" y1="71.9" x2="123.4" y2="71.9" gradientUnits="userSpaceOnUse">
      <stop offset="0" stop-color="#062031"/>
      <stop offset=".5" stop-color="#007fc9"/>
      <stop offset="1" stop-color="#062031"/>
    </linearGradient>
    <clipPath id="clippath-1">
      <path class="st2" d="M38.7,129.8l17.3,10.1c3.7,2.1,8.2,2.1,11.8,0l41.3-23.9c23-35.3-15.1-47.9-15.1-47.9l-25.5-2.5-29.9,64.2Z"/>
    </clipPath>
    <linearGradient id="_Безымянный_градиент_2" data-name="Безымянный градиент 2" x1="38.4" y1="103.7" x2="92.3" y2="103.7" gradientUnits="userSpaceOnUse">
      <stop offset="0" stop-color="#0076ba"/>
      <stop offset="1" stop-color="#062234"/>
    </linearGradient>
    <clipPath id="clippath-2">
      <path class="st2" d="M56,3.6L14.6,27.5c-23,35.2,15.1,47.8,15.1,47.8l25.5,2.6L85.1,13.6l-17.3-10.1c-1.8-1.1-3.9-1.6-5.9-1.6s-4.1.5-5.9,1.6"/>
    </clipPath>
    <linearGradient id="_Безымянный_градиент_3" data-name="Безымянный градиент 3" x1="30.6" y1="39.9" x2="85" y2="39.9" gradientUnits="userSpaceOnUse">
      <stop offset="0" stop-color="#062234"/>
      <stop offset="0" stop-color="#06263a"/>
      <stop offset=".2" stop-color="#0a4061"/>
      <stop offset=".4" stop-color="#0d547f"/>
      <stop offset=".6" stop-color="#0f6294"/>
      <stop offset=".8" stop-color="#106ba1"/>
      <stop offset="1" stop-color="#116ea6"/>
    </linearGradient>
    <clipPath id="clippath-3">
      <path class="st1" d="M470,90.1c-6.1,0-11.7-1.1-17-3.4-5.3-2.3-10-5.3-13.9-9.2-3.9-3.9-7.1-8.4-9.4-13.6-2.3-5.2-3.4-10.8-3.4-16.7s1.2-11.6,3.4-16.8c2.3-5.2,5.4-9.7,9.4-13.6,4-3.9,8.6-6.9,13.9-9.1,5.3-2.2,11-3.3,17-3.3s8.7.7,13.1,2c4.4,1.3,8.5,3.4,12.3,6.2,3.8,2.8,7,6.3,9.7,10.6,2.7,4.3,4.5,9.4,5.4,15.4h-19.4c-.7-3-1.8-5.6-3.2-7.7-1.4-2.1-3-3.8-4.9-5.2-1.9-1.3-4-2.3-6.3-3-2.3-.6-4.7-.9-7.3-.9s-6.4.6-9.3,1.7c-2.9,1.2-5.5,2.8-7.7,5.1-2.2,2.2-3.9,4.8-5.2,8-1.3,3.1-1.9,6.7-1.9,10.6s.6,7.6,1.9,10.8c1.3,3.1,3,5.8,5.2,7.9,2.2,2.2,4.8,3.8,7.7,4.9,2.9,1.1,6,1.7,9.3,1.7s4.9-.3,7.2-.9c2.3-.6,4.4-1.6,6.3-2.9,1.9-1.3,3.5-3,4.9-5.1,1.4-2.1,2.4-4.7,3.2-7.7h19.5c-.9,6-2.7,11.1-5.4,15.4-2.7,4.3-5.9,7.9-9.7,10.6-3.8,2.8-7.9,4.8-12.3,6.2-4.4,1.3-8.8,2-13.1,2M376.2,4.3c6.1,0,11.7,1.1,17,3.3,5.3,2.2,10,5.3,13.9,9.1,3.9,3.9,7.1,8.4,9.4,13.6,2.3,5.2,3.4,10.8,3.4,16.8s-1.2,11.5-3.4,16.7c-2.3,5.2-5.4,9.8-9.4,13.6-3.9,3.9-8.6,6.9-13.9,9.2-5.3,2.2-11,3.4-17,3.4s-8.8-.7-13.2-2c-4.5-1.3-8.6-3.4-12.4-6.2-3.8-2.8-7-6.3-9.8-10.6-2.7-4.3-4.5-9.4-5.4-15.4h19.5c.7,3,1.8,5.6,3.2,7.7,1.4,2.1,3.1,3.8,5,5.1,1.9,1.3,4,2.3,6.4,2.9,2.3.6,4.8.9,7.3.9s5.5-.4,8-1.2c2.5-.8,4.8-2,6.9-3.6,2.1-1.6,3.8-3.5,5.3-5.8,1.5-2.3,2.5-4.9,3.2-7.8h-33v-13.9h33c-.7-2.9-1.8-5.5-3.2-7.8-1.5-2.3-3.2-4.2-5.3-5.8-2.1-1.6-4.4-2.8-6.9-3.6-2.5-.8-5.2-1.3-8-1.3s-5,.3-7.3.9c-2.3.6-4.5,1.6-6.4,3-1.9,1.3-3.6,3.1-5,5.2-1.4,2.1-2.5,4.7-3.2,7.7h-19.5c.9-6,2.8-11.1,5.5-15.4,2.7-4.3,6-7.9,9.8-10.6,3.8-2.8,7.9-4.8,12.4-6.2,4.5-1.3,8.9-2,13.2-2ZM304.9,88.3v-50.8l-39.2,50.8h-16.5V6.4h19.1v50.8l39-50.8h16.7v81.8h-19.1ZM208.6,72c1.4,0,2.8-.2,3.9-.7,1.2-.5,2.2-1.1,3.1-1.9.9-.8,1.6-1.8,2.1-3,.5-1.2.7-2.5.7-4s-.2-2.4-.7-3.5c-.5-1.1-1.2-2.1-2.1-2.9-.9-.8-1.9-1.5-3.1-1.9-1.2-.5-2.5-.7-3.9-.7h-18.8v18.6h18.8ZM205.9,39.3c1.2,0,2.3-.2,3.3-.6,1-.4,1.8-1,2.6-1.7.7-.7,1.3-1.6,1.7-2.7.4-1,.6-2.2.6-3.4s-.2-2.3-.6-3.3c-.4-1-1-1.9-1.7-2.6-.7-.7-1.6-1.3-2.6-1.7-1-.4-2.1-.6-3.2-.6h-16.2v16.6h16.1ZM170.4,6.4h36.5c4,0,7.6.5,10.9,1.5,3.2,1,6,2.5,8.3,4.4,2.3,1.9,4.1,4.3,5.3,7.1,1.3,2.8,1.9,6,1.9,9.7s-.3,3.4-.8,5.1c-.5,1.6-1.3,3.2-2.2,4.6-.9,1.4-2,2.6-3.2,3.7-1.2,1-2.5,1.8-3.8,2.4,2,.7,3.8,1.6,5.6,2.9,1.7,1.2,3.3,2.7,4.6,4.3,1.3,1.6,2.4,3.5,3.2,5.4.8,2,1.2,4.1,1.2,6.3,0,4.4-.8,8.1-2.4,11.2-1.6,3.1-3.7,5.6-6.3,7.6-2.6,2-5.5,3.4-8.8,4.3-3.3.9-6.7,1.4-10,1.4h-39.9V6.4Z"/>
    </clipPath>
    <linearGradient id="_Безымянный_градиент_4" data-name="Безымянный градиент 4" x1="170.4" y1="47.2" x2="510.5" y2="47.2" gradientUnits="userSpaceOnUse">
      <stop offset="0" stop-color="#00639c"/>
      <stop offset="1" stop-color="#023d61"/>
    </linearGradient>
  </defs>
  <g class="st10">
    <rect class="st6" y="2" width="123.8" height="139.9"/>
  </g>
  <g class="st3">
    <rect class="st5" x="38.7" y="65.5" width="93.6" height="76.4"/>
  </g>
  <g class="st7">
    <rect class="st9" x="-8.4" y="2" width="93.6" height="75.9"/>
  </g>
  <path class="st8" d="M29.7,75.4l21.2,6.7c1.6.5,2.5,2.2,2,3.8l-14.4,44.1,53.4-59.5,1.3.4c.7.2,15.9,5.7,19.7,18.1,2.4,7.8,0,16.9-7.3,27.1l-2.1,3,4.1-2.4,1.6-.9c20.1-30.7-6.6-44.2-13.6-47.1-.1,0-.2,0-.4-.1-.1,0-.2,0-.3-.1h-.3c0-.1-.2-.2-.2-.2h-.2c0,0-.1-.1-.1-.1h0s0,0,0,0l-2.6-.7-18.7-5.9c-1.6-.5-2.5-2.2-2-3.8l14.5-44-53.5,59.2-1.3-.4c-1.1-.4-15.9-5.9-19.6-18.1-2.4-7.8,0-16.9,7.3-27.1l2-3.2-5.6,3.2c-23,35.2,15,48,15,48"/>
  <path d="M338.1,136.6h3.1c.3,0,.6,0,.9-.2.3-.1.5-.3.7-.5.2-.2.4-.5.5-.7.1-.3.2-.6.2-.9s0-.7-.2-1c-.1-.3-.3-.6-.5-.8-.2-.2-.4-.4-.7-.5-.3-.1-.6-.2-.9-.2h-3.1v4.8ZM347.8,125.4h2.5v13.4h-2.5v-13.4ZM338.1,125.4v4.3h3.2c.7,0,1.3.1,1.9.3.6.2,1.1.5,1.5.9.4.4.7.9,1,1.5.2.6.3,1.2.3,1.9s-.1,1.3-.3,1.8c-.2.6-.6,1-1,1.4-.4.4-.9.7-1.5.9-.6.2-1.2.3-1.9.3h-5.7v-13.4h2.5ZM318.8,125.4h2.1l4.6,6.3,4.7-6.3h2.1v13.4h-2.5v-9.5l-4,5.5h-.7l-4-5.5v9.5h-2.5v-13.4ZM307.3,125.4h9.2v2.2h-6.7v3.4h5.8v2.1h-5.8v3.6h6.8v2.2h-9.3v-13.4ZM298.8,127.6h-4v-2.2h10.5v2.2h-4v11.3h-2.4v-11.3ZM287.3,139.1c-1,0-1.9-.2-2.8-.5-.9-.4-1.6-.9-2.3-1.5-.6-.6-1.1-1.4-1.5-2.2-.4-.9-.6-1.8-.6-2.7s.2-1.9.6-2.7c.4-.9.9-1.6,1.5-2.2.6-.6,1.4-1.1,2.3-1.5.9-.4,1.8-.5,2.8-.5s1.4.1,2.1.3c.7.2,1.4.5,1.9,1,.6.4,1.1,1,1.5,1.6.4.7.7,1.4.9,2.3h-2.5c-.1-.5-.3-1-.6-1.3-.3-.4-.6-.7-.9-.9-.3-.2-.7-.4-1.2-.5-.4-.1-.9-.2-1.4-.2s-1.2.1-1.8.3c-.6.2-1,.6-1.5,1-.4.4-.7.9-1,1.5-.2.6-.4,1.2-.4,2s.1,1.4.4,2c.2.6.6,1.1,1,1.5.4.4.9.7,1.5,1,.6.2,1.1.3,1.8.3s.9,0,1.4-.2c.4-.1.8-.3,1.2-.5.4-.2.7-.6.9-.9.3-.4.5-.8.6-1.3h2.5c-.2.9-.4,1.7-.9,2.3-.4.7-.9,1.2-1.5,1.6-.6.4-1.2.7-1.9,1-.7.2-1.4.3-2.1.3ZM275.4,138.8v-9.4l-7.3,9.4h-2.1v-13.4h2.4v9.4l7.3-9.4h2.1v13.4h-2.5ZM257.3,139.1c-1,0-1.9-.2-2.8-.5-.9-.4-1.6-.9-2.3-1.5-.6-.6-1.1-1.4-1.5-2.2-.4-.9-.6-1.8-.6-2.7s.2-1.9.6-2.7c.4-.9.9-1.6,1.5-2.2.6-.6,1.4-1.1,2.3-1.5.9-.4,1.8-.5,2.8-.5s1.4.1,2.1.3c.7.2,1.4.5,1.9,1,.6.4,1.1,1,1.5,1.6.4.7.7,1.4.9,2.3h-2.5c-.1-.5-.3-1-.6-1.3-.3-.4-.6-.7-.9-.9-.3-.2-.7-.4-1.2-.5-.4-.1-.9-.2-1.4-.2s-1.2.1-1.8.3c-.6.2-1,.6-1.5,1-.4.4-.7.9-1,1.5-.2.6-.4,1.2-.4,2s.1,1.4.4,2c.2.6.6,1.1,1,1.5.4.4.9.7,1.5,1,.6.2,1.1.3,1.8.3s.9,0,1.4-.2c.4-.1.8-.3,1.2-.5.4-.2.7-.6.9-.9.3-.4.5-.8.6-1.3h2.5c-.2.9-.4,1.7-.9,2.3-.4.7-.9,1.2-1.5,1.6-.6.4-1.2.7-1.9,1-.7.2-1.4.3-2.1.3ZM241.6,136.8c.7,0,1.3-.1,1.9-.4.6-.2,1.1-.6,1.5-1,.4-.4.8-.9,1-1.5.2-.6.4-1.2.4-1.9s-.1-1.3-.4-1.9c-.2-.6-.6-1.1-1-1.5-.4-.4-.9-.8-1.5-1-.6-.2-1.2-.4-1.9-.4s-1.3.1-1.9.4c-.6.2-1.1.6-1.5,1-.4.4-.8.9-1,1.5-.2.6-.4,1.2-.4,1.9s.1,1.3.4,1.9c.2.6.6,1.1,1,1.5.4.4.9.8,1.5,1,.6.2,1.2.4,1.9.4ZM241.6,139.1c-1,0-1.9-.2-2.8-.5-.9-.4-1.6-.9-2.3-1.5-.7-.6-1.2-1.4-1.6-2.2-.4-.9-.6-1.8-.6-2.7s.2-1.9.6-2.7c.4-.9.9-1.6,1.6-2.2.7-.6,1.4-1.1,2.3-1.5.9-.4,1.8-.5,2.8-.5s1.9.2,2.8.5c.9.4,1.6.9,2.3,1.5.7.6,1.2,1.4,1.6,2.2.4.9.6,1.8.6,2.7s-.2,1.9-.6,2.7c-.4.9-.9,1.6-1.6,2.2-.7.6-1.4,1.1-2.3,1.5-.9.4-1.8.5-2.8.5ZM234.1,125.4v2.2h-5.2v11.2h-2.5v-13.4h7.7ZM219.8,132.3c.3,0,.6,0,.9-.2.3-.1.5-.3.7-.5.2-.2.4-.5.5-.8.1-.3.2-.6.2-1s0-.6-.2-.9c-.1-.3-.3-.5-.5-.7-.2-.2-.4-.4-.7-.5-.3-.1-.6-.2-.9-.2h-3.1v4.8h3.1ZM214.2,125.4h5.7c.7,0,1.3.1,1.9.3.6.2,1.1.5,1.5.9.4.4.7.9,1,1.4.2.6.3,1.2.3,1.8s-.1,1.3-.3,1.9c-.2.6-.5,1.1-1,1.5-.4.4-.9.7-1.5.9-.6.2-1.2.3-1.9.3h-3.2v4.3h-2.5v-13.4ZM202.6,125.4h9.2v2.2h-6.7v3.4h5.8v2.1h-5.8v3.6h6.8v2.2h-9.3v-13.4ZM187.7,125.4h2.5v5.6h6.8v-5.6h2.5v13.4h-2.5v-5.7h-6.8v5.7h-2.5v-13.4ZM178.4,125c1,0,1.9.2,2.8.5.9.4,1.6.9,2.3,1.5.6.6,1.1,1.4,1.5,2.2.4.9.6,1.8.6,2.7s-.2,1.9-.6,2.7c-.4.9-.9,1.6-1.5,2.2-.6.6-1.4,1.1-2.3,1.5-.9.4-1.8.5-2.8.5s-1.4-.1-2.2-.3c-.7-.2-1.4-.5-2-1-.6-.4-1.1-1-1.6-1.6-.4-.7-.7-1.4-.9-2.3h2.5c.1.5.3,1,.6,1.3.3.4.6.7.9.9.4.2.8.4,1.2.5.4.1.9.2,1.4.2s1.1,0,1.6-.3c.5-.2,1-.4,1.3-.8.4-.3.7-.7,1-1.2.3-.5.5-1,.5-1.6h-6.5v-1.8h6.5c0-.6-.3-1.1-.5-1.6-.3-.5-.6-.9-1-1.2-.4-.3-.8-.6-1.3-.8-.5-.2-1-.3-1.6-.3s-1,0-1.4.2c-.4.1-.8.3-1.2.5-.4.2-.7.6-.9.9-.3.4-.5.8-.6,1.3h-2.5c.2-.9.5-1.7.9-2.3.4-.7,1-1.2,1.6-1.6.6-.4,1.3-.7,2-1,.7-.2,1.4-.3,2.1-.3ZM503.3,104.7h9.2v2.2h-6.7v3.4h5.8v2.1h-5.8v3.6h6.8v2.2h-9.3v-13.4ZM487.9,116h3.1c.3,0,.6,0,.9-.2.3-.1.5-.3.7-.5.2-.2.4-.5.5-.7.1-.3.2-.6.2-.9s0-.7-.2-1c-.1-.3-.3-.6-.5-.8-.2-.2-.4-.4-.7-.5-.3-.1-.6-.2-.9-.2h-3.1v4.8ZM497.7,104.7h2.5v13.4h-2.5v-13.4ZM487.9,104.7v4.3h3.2c.7,0,1.3.1,1.9.3.6.2,1.1.5,1.5.9.4.4.7.9,1,1.5.2.6.3,1.2.3,1.9s-.1,1.3-.3,1.8c-.2.6-.6,1-1,1.4-.4.4-.9.7-1.5.9-.6.2-1.2.3-1.9.3h-5.7v-13.4h2.5ZM470.5,104.7h2.5v5.6h6.8v-5.6h2.5v13.4h-2.5v-5.7h-6.8v5.7h-2.5v-13.4ZM463.9,111.7c.3,0,.6,0,.9-.2.3-.1.5-.3.7-.5.2-.2.4-.5.5-.8.1-.3.2-.6.2-1s0-.6-.2-.9c-.1-.3-.3-.5-.5-.7-.2-.2-.4-.4-.7-.5-.3-.1-.6-.2-.9-.2h-3.1v4.8h3.1ZM458.3,104.7h5.7c.7,0,1.3.1,1.9.3.6.2,1.1.5,1.5.9.4.4.7.9,1,1.4.2.6.3,1.2.3,1.8s-.1,1.3-.3,1.9c-.2.6-.5,1.1-1,1.5-.4.4-.9.7-1.5.9-.6.2-1.2.3-1.9.3h-3.2v4.3h-2.5v-13.4ZM448.8,116.2c.7,0,1.3-.1,1.9-.4.6-.2,1.1-.6,1.5-1,.4-.4.8-.9,1-1.5.2-.6.4-1.2.4-1.9s-.1-1.3-.4-1.9c-.2-.6-.6-1.1-1-1.5-.4-.4-.9-.8-1.5-1-.6-.2-1.2-.4-1.9-.4s-1.3.1-1.9.4c-.6.2-1.1.6-1.5,1-.4.4-.8.9-1,1.5-.2.6-.4,1.2-.4,1.9s.1,1.3.4,1.9c.2.6.6,1.1,1,1.5.4.4.9.8,1.5,1,.6.2,1.2.4,1.9.4ZM448.8,118.5c-1,0-1.9-.2-2.8-.5-.9-.4-1.6-.9-2.3-1.5-.7-.6-1.2-1.4-1.6-2.2-.4-.9-.6-1.8-.6-2.7s.2-1.9.6-2.7c.4-.9.9-1.6,1.6-2.2.7-.6,1.4-1.1,2.3-1.5.9-.4,1.8-.5,2.8-.5s1.9.2,2.8.5c.9.4,1.6.9,2.3,1.5.7.6,1.2,1.4,1.6,2.2.4.9.6,1.8.6,2.7s-.2,1.9-.6,2.7c-.4.9-.9,1.6-1.6,2.2-.7.6-1.4,1.1-2.3,1.5-.9.4-1.8.5-2.8.5ZM434.8,106.9h-4v-2.2h10.5v2.2h-4v11.3h-2.4v-11.3ZM425.3,111.7c.3,0,.6,0,.9-.2.3-.1.5-.3.7-.5.2-.2.4-.5.5-.8s.2-.6.2-1,0-.6-.2-.9c-.1-.3-.3-.5-.5-.7-.2-.2-.4-.4-.7-.5-.3-.1-.6-.2-.9-.2h-3.1v4.8h3.1ZM419.7,104.7h5.7c.7,0,1.3.1,1.9.3.6.2,1.1.5,1.5.9.4.4.7.9,1,1.4.2.6.3,1.2.3,1.8s-.1,1.3-.3,1.9c-.2.6-.5,1.1-1,1.5-.4.4-.9.7-1.5.9-.6.2-1.2.3-1.9.3h-3.2v4.3h-2.5v-13.4ZM408.2,104.7h9.2v2.2h-6.7v3.4h5.8v2.1h-5.8v3.6h6.8v2.2h-9.3v-13.4ZM401.4,116c.3,0,.6,0,.8-.1.2,0,.5-.2.6-.4.2-.2.3-.4.4-.6,0-.2.1-.5.1-.8s0-.5-.1-.7c0-.2-.2-.4-.4-.6-.2-.2-.4-.3-.6-.4-.2,0-.5-.1-.8-.1h-3.7v3.9h3.7ZM400.9,110.3c.2,0,.5,0,.7-.1.2,0,.4-.2.5-.4.2-.2.3-.3.4-.6,0-.2.1-.4.1-.7s0-.5-.1-.7c0-.2-.2-.4-.4-.5-.2-.2-.3-.3-.5-.4-.2,0-.4-.1-.7-.1h-3.3v3.5h3.3ZM395.2,104.7h5.9c.6,0,1.2,0,1.7.3.5.2.9.4,1.3.7.4.3.6.7.8,1.1.2.4.3,1,.3,1.5s0,.6-.1.9c0,.3-.2.5-.4.8-.2.2-.3.4-.5.6-.2.2-.4.3-.7.4.3.1.7.3,1,.5.3.2.6.4.8.7.2.3.4.6.5.9.1.3.2.7.2,1.1,0,.7-.1,1.2-.4,1.7-.2.5-.6.9-1,1.2-.4.3-.9.6-1.4.7-.5.2-1,.2-1.6.2h-6.4v-13.4ZM380.3,104.7h2.5v5.6h6.8v-5.6h2.5v13.4h-2.5v-5.7h-6.8v5.7h-2.5v-13.4ZM374.6,118.2v-9.4l-7.3,9.4h-2.1v-13.4h2.4v9.4l7.3-9.4h2.1v13.4h-2.5ZM355.7,111.8h6.8v2h-6.8v-2ZM346.7,116.2c.7,0,1.3-.1,1.9-.4.6-.2,1.1-.6,1.5-1,.4-.4.8-.9,1-1.5.2-.6.4-1.2.4-1.9s-.1-1.3-.4-1.9c-.2-.6-.6-1.1-1-1.5-.4-.4-.9-.8-1.5-1-.6-.2-1.2-.4-1.9-.4s-1.3.1-1.9.4c-.6.2-1.1.6-1.5,1-.4.4-.8.9-1,1.5-.2.6-.4,1.2-.4,1.9s.1,1.3.4,1.9c.2.6.6,1.1,1,1.5.4.4.9.8,1.5,1,.6.2,1.2.4,1.9.4ZM346.7,118.5c-1,0-1.9-.2-2.8-.5-.9-.4-1.6-.9-2.3-1.5-.7-.6-1.2-1.4-1.6-2.2-.4-.9-.6-1.8-.6-2.7s.2-1.9.6-2.7c.4-.9.9-1.6,1.6-2.2.7-.6,1.4-1.1,2.3-1.5.9-.4,1.8-.5,2.8-.5s1.9.2,2.8.5c.9.4,1.6.9,2.3,1.5.7.6,1.2,1.4,1.6,2.2.4.9.6,1.8.6,2.7s-.2,1.9-.6,2.7c-.4.9-.9,1.6-1.6,2.2-.7.6-1.4,1.1-2.3,1.5-.9.4-1.8.5-2.8.5ZM325.5,104.7h2.5v5.6h6.8v-5.6h2.5v13.4h-2.5v-5.7h-6.8v5.7h-2.5v-13.4ZM318.5,116c.3,0,.7,0,.9-.2.3-.1.5-.3.7-.5.2-.2.4-.4.5-.7.1-.3.2-.6.2-.9s0-.6-.2-.9c-.1-.3-.3-.5-.5-.7-.2-.2-.4-.4-.7-.5-.3-.1-.6-.2-.9-.2h-3.1v4.4h3.1ZM312.9,104.7h2.5v4.6h3.2c.7,0,1.3.1,1.9.3.6.2,1.1.5,1.5.9.4.4.7.9,1,1.4.2.5.3,1.1.3,1.8s-.1,1.2-.3,1.7c-.2.5-.6,1-1,1.4-.4.4-.9.7-1.5.9-.6.2-1.2.3-1.9.3h-5.6v-13.4ZM296.9,116.3h.7c.5,0,.8-.1,1-.4.2-.3.3-.7.3-1.4v-9.7h10.8v13.4h-2.5v-11.3h-5.8v7.8c0,.7,0,1.2-.3,1.7-.2.5-.5.9-.8,1.2-.3.3-.7.5-1.2.7-.5.1-.9.2-1.5.2h-.7v-2.2ZM286.6,104.7h9.2v2.2h-6.7v3.4h5.8v2.1h-5.8v3.6h6.8v2.2h-9.3v-13.4ZM278.1,106.9h-4v-2.2h10.5v2.2h-4v11.3h-2.4v-11.3ZM269.7,118.2v-9.4l-7.3,9.4h-2.1v-13.4h2.4v9.4l7.3-9.4h2.1v13.4h-2.5ZM243.4,104.7h2.1l4.6,6.3,4.7-6.3h2.1v13.4h-2.5v-9.5l-4,5.5h-.7l-4-5.5v9.5h-2.5v-13.4ZM237.8,106.9h-3.2c-.3,0-.6,0-.9.2-.3.1-.5.3-.7.5-.2.2-.4.4-.5.7-.1.3-.2.5-.2.9s0,.6.2.9c.1.3.3.5.5.7.2.2.5.4.7.5.3.1.6.2.9.2h3.3v-4.4ZM237.8,118.2v-4.8h-2.8l-2.7,4.8h-2.8l3.1-5.1c-.4-.1-.8-.3-1.1-.6-.3-.2-.6-.5-.9-.9-.2-.3-.4-.7-.6-1.1-.1-.4-.2-.9-.2-1.3s.1-1.2.3-1.8c.2-.5.6-1,1-1.4.4-.4.9-.7,1.5-.9.6-.2,1.2-.3,1.9-.3h5.8v13.4h-2.5ZM224,111.7c.3,0,.6,0,.9-.2.3-.1.5-.3.7-.5.2-.2.4-.5.5-.8.1-.3.2-.6.2-1s0-.6-.2-.9c-.1-.3-.3-.5-.5-.7-.2-.2-.4-.4-.7-.5-.3-.1-.6-.2-.9-.2h-3.1v4.8h3.1ZM218.4,104.7h5.7c.7,0,1.3.1,1.9.3.6.2,1.1.5,1.5.9.4.4.7.9,1,1.4.2.6.3,1.2.3,1.8s-.1,1.3-.3,1.9c-.2.6-.5,1.1-1,1.5-.4.4-.9.7-1.5.9-.6.2-1.2.3-1.9.3h-3.2v4.3h-2.5v-13.4ZM203.6,104.7h11.7v13.4h-2.5v-11.3h-6.8v11.3h-2.5v-13.4ZM188.1,116h3.1c.3,0,.6,0,.9-.2.3-.1.5-.3.7-.5.2-.2.4-.5.5-.7.1-.3.2-.6.2-.9s0-.7-.2-1c-.1-.3-.3-.6-.5-.8-.2-.2-.4-.4-.7-.5-.3-.1-.6-.2-.9-.2h-3.1v4.8ZM197.9,104.7h2.5v13.4h-2.5v-13.4ZM188.1,104.7v4.3h3.2c.7,0,1.3.1,1.9.3.6.2,1.1.5,1.5.9.4.4.7.9,1,1.5.2.6.3,1.2.3,1.9s-.1,1.3-.3,1.8c-.2.6-.6,1-1,1.4-.4.4-.9.7-1.5.9-.6.2-1.2.3-1.9.3h-5.7v-13.4h2.5ZM178.9,116c.3,0,.6,0,.8-.1.2,0,.5-.2.6-.4.2-.2.3-.4.4-.6,0-.2.1-.5.1-.8s0-.5-.1-.7c0-.2-.2-.4-.4-.6-.2-.2-.4-.3-.6-.4-.2,0-.5-.1-.8-.1h-3.7v3.9h3.7ZM178.5,110.3c.2,0,.5,0,.7-.1.2,0,.4-.2.5-.4.2-.2.3-.3.4-.6,0-.2.1-.4.1-.7s0-.5-.1-.7c0-.2-.2-.4-.4-.5-.2-.2-.3-.3-.5-.4-.2,0-.4-.1-.7-.1h-3.3v3.5h3.3ZM172.7,104.7h5.9c.6,0,1.2,0,1.7.3.5.2.9.4,1.3.7.4.3.6.7.8,1.1.2.4.3,1,.3,1.5s0,.6-.1.9c0,.3-.2.5-.4.8-.2.2-.3.4-.5.6-.2.2-.4.3-.7.4.3.1.7.3,1,.5.3.2.6.4.8.7.2.3.4.6.5.9.1.3.2.7.2,1.1,0,.7-.1,1.2-.4,1.7-.2.5-.6.9-1,1.2-.4.3-.9.6-1.4.7-.5.2-1,.2-1.6.2h-6.4v-13.4Z"/>
  <g class="st4">
    <rect class="st0" x="170.4" y="4.3" width="340" height="85.8"/>
  </g>
</svg>